<!--?xml version="1.0" encoding="utf-8"?-->
<!-- Generator: Adobe Illustrator 18.1.1, SVG Export Plug-In . SVG Version: 6.00 Build 0)  -->

<svg version="1.1" id="_x32_" xmlns="http://www.w3.org/2000/svg" xmlns:xlink="http://www.w3.org/1999/xlink" x="0px" y="0px" viewBox="0 0 512 512" style="width: 256px; height: 256px; opacity: 1;" xml:space="preserve">
<style type="text/css">
	.st0{fill:#4B4B4B;}
</style><style class="darkreader darkreader--sync" media="screen"></style>
<g>
	<polygon class="st0" points="391.207,309.55 412.431,346.316 222.181,346.316 243.938,383.994 477.706,383.994 412.961,271.864 	
		" style="fill: rgb(75, 75, 75); --darkreader-inline-fill: #b9b3a9;" data-darkreader-inline-fill=""></polygon>
	<polygon class="st0" points="99.574,346.316 194.69,181.552 151.167,181.552 34.294,383.994 163.76,383.994 142.024,346.316 	" style="fill: rgb(75, 75, 75); --darkreader-inline-fill: #b9b3a9;" data-darkreader-inline-fill=""></polygon>
	<polygon class="st0" points="256,75.371 351.116,240.136 372.874,202.442 256,0 191.255,112.13 234.774,112.13 	" style="fill: rgb(75, 75, 75); --darkreader-inline-fill: #b9b3a9;" data-darkreader-inline-fill=""></polygon>
	<polygon class="st0" points="256,436.629 160.884,271.864 139.13,309.55 256,512 320.728,399.87 277.231,399.87 	" style="fill: rgb(75, 75, 75); --darkreader-inline-fill: #b9b3a9;" data-darkreader-inline-fill=""></polygon>
	<polygon class="st0" points="412.431,165.684 317.311,330.448 360.812,330.448 477.706,127.991 348.219,127.991 369.98,165.684 	
		" style="fill: rgb(75, 75, 75); --darkreader-inline-fill: #b9b3a9;" data-darkreader-inline-fill=""></polygon>
	<polygon class="st0" points="120.801,202.442 99.574,165.684 289.824,165.684 268.062,127.991 34.294,127.991 99.039,240.136 	" style="fill: rgb(75, 75, 75); --darkreader-inline-fill: #b9b3a9;" data-darkreader-inline-fill=""></polygon>
</g>
</svg>
